<svg width="529" height="98" viewBox="0 0 529 98" fill="none" xmlns="http://www.w3.org/2000/svg">
<path d="M67.9 98H30.1C22.54 98 18.9 94.36 18.9 86.8C18.9 80.92 17.08 79.1 11.2 79.1C3.64 79.1 1.04308e-07 75.46 1.04308e-07 67.9V30.1C1.04308e-07 22.68 3.64 18.9 11.2 18.9C17.08 18.9 18.9 17.08 18.9 11.2C18.9 3.77999 22.54 -6.67572e-06 30.1 -6.67572e-06H67.9C75.32 -6.67572e-06 79.1 3.77999 79.1 11.2C79.1 17.08 80.92 18.9 86.8 18.9C94.22 18.9 98 22.68 98 30.1V67.9C98 75.46 94.22 79.1 86.8 79.1C80.92 79.1 79.1 80.92 79.1 86.8C79.1 94.36 75.32 98 67.9 98ZM67.9 22.4H30.1C24.22 22.4 22.4 24.22 22.4 30.1V67.9C22.4 73.78 24.22 75.6 30.1 75.6H67.9C73.78 75.6 75.6 73.78 75.6 67.9V30.1C75.6 24.22 73.78 22.4 67.9 22.4ZM210.109 86.8C210.109 94.36 206.329 98 198.909 98C191.349 98 187.709 94.36 187.709 86.8V67.9C187.709 62.02 185.889 60.2 180.009 60.2C172.449 60.2 168.809 56.56 168.809 49C168.809 43.12 166.989 41.3 161.109 41.3C153.549 41.3 149.909 37.66 149.909 30.1C149.909 24.22 148.089 22.4 142.209 22.4C136.329 22.4 134.509 24.22 134.509 30.1V86.8C134.509 94.36 130.729 98 123.309 98C115.749 98 112.109 94.36 112.109 86.8V11.2C112.109 3.77999 115.749 -6.67572e-06 123.309 -6.67572e-06H142.209C149.629 -6.67572e-06 153.409 3.77999 153.409 11.2C153.409 17.08 155.229 18.9 161.109 18.9C168.529 18.9 172.309 22.68 172.309 30.1C172.309 35.98 174.129 37.8 180.009 37.8C185.889 37.8 187.709 35.98 187.709 30.1V11.2C187.709 3.77999 191.349 -6.67572e-06 198.909 -6.67572e-06C206.329 -6.67572e-06 210.109 3.77999 210.109 11.2V86.8ZM292.255 98H254.455C246.895 98 243.255 94.36 243.255 86.8C243.255 80.92 241.435 79.1 235.555 79.1C227.995 79.1 224.355 75.46 224.355 67.9C224.355 60.48 227.995 56.7 235.555 56.7C242.975 56.7 246.755 60.48 246.755 67.9C246.755 73.78 248.575 75.6 254.455 75.6H292.255C298.135 75.6 299.955 73.78 299.955 67.9C299.955 62.02 298.135 60.2 292.255 60.2H254.455C246.895 60.2 243.255 56.56 243.255 49C243.255 43.12 241.435 41.3 235.555 41.3C227.995 41.3 224.355 37.66 224.355 30.1C224.355 22.68 227.995 18.9 235.555 18.9C241.435 18.9 243.255 17.08 243.255 11.2C243.255 3.77999 246.895 -6.67572e-06 254.455 -6.67572e-06H292.255C299.675 -6.67572e-06 303.455 3.77999 303.455 11.2C303.455 17.08 305.275 18.9 311.155 18.9C318.575 18.9 322.355 22.68 322.355 30.1C322.355 37.66 318.575 41.3 311.155 41.3C303.595 41.3 299.955 37.66 299.955 30.1C299.955 24.22 298.135 22.4 292.255 22.4H254.455C248.575 22.4 246.755 24.22 246.755 30.1C246.755 35.98 248.575 37.8 254.455 37.8H292.255C299.675 37.8 303.455 41.58 303.455 49C303.455 54.88 305.275 56.7 311.155 56.7C318.575 56.7 322.355 60.48 322.355 67.9C322.355 75.46 318.575 79.1 311.155 79.1C305.275 79.1 303.455 80.92 303.455 86.8C303.455 94.36 299.675 98 292.255 98ZM404.365 98H347.665C340.105 98 336.465 94.36 336.465 86.8V67.9C336.465 60.48 340.105 56.7 347.665 56.7C353.545 56.7 355.365 54.88 355.365 49C355.365 43.12 353.545 41.3 347.665 41.3C340.105 41.3 336.465 37.66 336.465 30.1C336.465 22.68 340.105 18.9 347.665 18.9C353.545 18.9 355.365 17.08 355.365 11.2C355.365 3.77999 359.005 -6.67572e-06 366.565 -6.67572e-06H385.465C392.885 -6.67572e-06 396.665 3.77999 396.665 11.2C396.665 17.08 398.485 18.9 404.365 18.9C411.785 18.9 415.565 22.68 415.565 30.1C415.565 37.66 411.785 41.3 404.365 41.3C396.805 41.3 393.165 37.66 393.165 30.1C393.165 24.22 391.345 22.4 385.465 22.4H366.565C360.685 22.4 358.865 24.22 358.865 30.1C358.865 35.98 360.685 37.8 366.565 37.8H385.465C392.885 37.8 396.665 41.58 396.665 49C396.665 56.56 392.885 60.2 385.465 60.2H366.565C360.685 60.2 358.865 62.02 358.865 67.9C358.865 73.78 360.685 75.6 366.565 75.6H404.365C410.245 75.6 412.065 73.78 412.065 67.9C412.065 60.48 415.845 56.7 423.265 56.7C430.685 56.7 434.465 60.48 434.465 67.9C434.465 75.46 430.685 79.1 423.265 79.1C417.385 79.1 415.565 80.92 415.565 86.8C415.565 94.36 411.785 98 404.365 98ZM490.727 86.8C490.727 94.36 486.947 98 479.527 98C471.967 98 468.327 94.36 468.327 86.8V49C468.327 43.12 466.507 41.3 460.627 41.3C453.067 41.3 449.427 37.66 449.427 30.1C449.427 24.22 447.607 22.4 441.727 22.4C434.167 22.4 430.527 18.62 430.527 11.2C430.527 3.77999 434.167 -6.67572e-06 441.727 -6.67572e-06H517.327C524.747 -6.67572e-06 528.527 3.77999 528.527 11.2C528.527 18.62 524.747 22.4 517.327 22.4H479.527C473.647 22.4 471.827 24.22 471.827 30.1C471.827 35.98 473.647 37.8 479.527 37.8C486.947 37.8 490.727 41.58 490.727 49V86.8Z" fill="white"/>
</svg>
